<?xml version="1.0" standalone="no"?><!-- Generator: Gravit.io --><svg xmlns="http://www.w3.org/2000/svg" xmlns:xlink="http://www.w3.org/1999/xlink" style="isolation:isolate" viewBox="538 -217 785 785.111" width="785" height="785.111"><ellipse vector-effect="non-scaling-stroke" cx="930.5000000000001" cy="175.55574808965142" rx="392.49999999999966" ry="392.5557480896512" fill="rgb(118,66,228)"/><g><path d=" M 871.35 -45 L 908.283 -44.099 Q 909.392 -21.371 903.779 -5.364 Q 820.107 -6.162 787.575 44.18 Q 763.846 70.897 759.649 117.146 L 719.113 112.642 Q 728.338 38.092 774.062 0.04 Q 809.345 -35.841 871.35 -45 Z " fill="rgb(255,255,255)"/><path d=" M 1136.188 214.433 L 1158.708 215.334 Q 1158.941 312.854 1103.759 354.96 Q 1066.623 392.591 999.265 400 Q 994.761 398.198 996.562 390.091 L 994.761 359.464 Q 1059.513 353.953 1088.445 312.621 Q 1120.091 280.31 1119.973 216.235 Q 1132.585 219.838 1136.188 214.433 Z " fill="rgb(255,255,255)"/><path d=" M 837.119 55.891 L 936.208 55.891 Q 999.679 51.873 1023.587 87.419 Q 1043.475 107.166 1041.603 148.674 L 1034.396 170.294 C 1068.907 204.566 1051.396 268.646 1013.841 292.629 C 991.255 307.052 964.08 308.704 938.01 306.316 L 938.01 306.316 L 838.921 306.316 C 833.103 302.992 834.827 294.419 836.218 289.2 L 836.218 289.2 L 836.218 242.358 L 837.119 55.891 Z " fill="rgb(255,255,255)"/><path d=" M 872.8 101.449 L 938.655 101.449 Q 980.838 98.779 996.728 122.403 Q 1009.946 135.527 1008.701 163.113 L 1003.912 177.482 C 1026.848 200.26 1015.21 242.848 990.25 258.787 C 975.24 268.372 957.179 269.47 939.853 267.883 L 939.853 267.883 L 873.997 267.883 C 870.131 265.674 871.276 259.976 872.201 256.508 L 872.201 256.508 L 872.201 225.376 L 872.8 101.449 Z " fill="rgb(117,65,227)"/><path d=" M 930.803 158.583 C 949.695 155.99 961.675 167.145 958.728 186.508 L 958.728 186.508 L 948.819 200.02 C 943.232 204.011 935.301 203.082 929.002 201.822 L 929.002 201.822 L 917.291 191.913 C 913.3 186.326 914.23 178.395 915.489 172.095 L 915.489 172.095 L 923.597 162.186 L 930.803 158.583 Z " fill="rgb(255,255,255)"/><ellipse vector-effect="non-scaling-stroke" cx="933.0000000000001" cy="177" rx="338.83175355450237" ry="331.4999999999999" fill="none" stroke-width="30" stroke="rgb(255,255,255)" stroke-linejoin="miter" stroke-linecap="butt" stroke-miterlimit="3"/></g></svg>