<?xml version="1.0" standalone="no"?><!-- Generator: Gravit.io --><svg xmlns="http://www.w3.org/2000/svg" xmlns:xlink="http://www.w3.org/1999/xlink" style="isolation:isolate" viewBox="538 -217 785 785.111" width="785" height="785.111"><ellipse vector-effect="non-scaling-stroke" cx="930.5000000000001" cy="175.55574808965142" rx="392.49999999999966" ry="392.5557480896512" fill="rgb(118,66,228)"/><g><path d=" M 673 16 Q 956 -59 1210 71 Q 1234 98 1213 122 Q 1192 146 1168 131 Q 961 24 698 86 Q 670 86 659 65 Q 648 44 673 16 Z " fill="rgb(255,255,255)"/><path d=" M 696 150 Q 949 80 1160 208 Q 1175 230 1161 245 Q 1147 260 1127 258 Q 925 152 719 206 Q 702 212 686 191 Q 670 170 696 150 Z " fill="rgb(255,255,255)"/><path d=" M 714 274 Q 955 223 1107 321 Q 1125 338 1115 350 Q 1105 362 1086 363 Q 917 271 727 322 Q 706 323 699 305 Q 692 287 714 274 Z " fill="rgb(255,255,255)"/></g></svg>