<?xml version="1.0" standalone="no"?><!-- Generator: Gravit.io --><svg xmlns="http://www.w3.org/2000/svg" xmlns:xlink="http://www.w3.org/1999/xlink" style="isolation:isolate" viewBox="538 -217 785 785.111" width="785" height="785.111"><ellipse vector-effect="non-scaling-stroke" cx="930.5000000000001" cy="175.55574808965142" rx="392.49999999999966" ry="392.5557480896512" fill="rgb(118,66,228)"/><g><path d=" M 604 198 Q 616 99 727 129 Q 762 3 886 59 Q 935 -33 1044 -8 Q 1153 17 1144 121 Q 1240 97 1258 189 Q 1276 281 1121 267 L 666 268 Q 609 258 604 198 Z " fill="rgb(255,255,255)"/><path d="M 939.449 10 L 939.551 10 C 943.11 10 946 12.89 946 16.449 L 946 255.551 C 946 259.11 943.11 262 939.551 262 L 939.449 262 C 935.89 262 933 259.11 933 255.551 L 933 16.449 C 933 12.89 935.89 10 939.449 10 Z" style="stroke:none;fill:#7642E4;stroke-miterlimit:10;"/><path d="M 615.54 174 L 622.46 174 C 624.138 174 625.5 175.362 625.5 177.04 L 625.5 226.96 C 625.5 228.638 624.138 230 622.46 230 L 615.54 230 C 613.862 230 612.5 228.638 612.5 226.96 L 612.5 177.04 C 612.5 175.362 613.862 174 615.54 174 Z" style="stroke:none;fill:#7642E4;stroke-miterlimit:10;"/><path d="M 639.761 142 L 644.239 142 C 646.591 142 648.5 143.909 648.5 146.261 L 648.5 247.739 C 648.5 250.091 646.591 252 644.239 252 L 639.761 252 C 637.409 252 635.5 250.091 635.5 247.739 L 635.5 146.261 C 635.5 143.909 637.409 142 639.761 142 Z" style="stroke:none;fill:#7642E4;stroke-miterlimit:10;"/><path d="M 664.132 130 L 667.868 130 C 670.424 130 672.5 132.076 672.5 134.632 L 672.5 255.368 C 672.5 257.924 670.424 260 667.868 260 L 664.132 260 C 661.576 260 659.5 257.924 659.5 255.368 L 659.5 134.632 C 659.5 132.076 661.576 130 664.132 130 Z" style="stroke:none;fill:#7642E4;stroke-miterlimit:10;"/><path d="M 686.272 127 L 689.728 127 C 692.362 127 694.5 129.138 694.5 131.772 L 694.5 260.228 C 694.5 262.862 692.362 265 689.728 265 L 686.272 265 C 683.638 265 681.5 262.862 681.5 260.228 L 681.5 131.772 C 681.5 129.138 683.638 127 686.272 127 Z" style="stroke:none;fill:#7642E4;stroke-miterlimit:10;"/><path d="M 709.167 132 L 712.833 132 C 715.409 132 717.5 134.091 717.5 136.667 L 717.5 259.333 C 717.5 261.909 715.409 264 712.833 264 L 709.167 264 C 706.591 264 704.5 261.909 704.5 259.333 L 704.5 136.667 C 704.5 134.091 706.591 132 709.167 132 Z" style="stroke:none;fill:#7642E4;stroke-miterlimit:10;"/><path d="M 734.29 124 L 737.71 124 C 740.354 124 742.5 126.146 742.5 128.79 L 742.5 258.21 C 742.5 260.854 740.354 263 737.71 263 L 734.29 263 C 731.646 263 729.5 260.854 729.5 258.21 L 729.5 128.79 C 729.5 126.146 731.646 124 734.29 124 Z" style="stroke:none;fill:#7642E4;stroke-miterlimit:10;"/><path d="M 757.011 78 L 758.989 78 C 762.031 78 764.5 80.469 764.5 83.511 L 764.5 256.489 C 764.5 259.531 762.031 262 758.989 262 L 757.011 262 C 753.969 262 751.5 259.531 751.5 256.489 L 751.5 83.511 C 751.5 80.469 753.969 78 757.011 78 Z" style="stroke:none;fill:#7642E4;stroke-miterlimit:10;"/><path d="M 781.288 59 L 782.712 59 C 785.906 59 788.5 61.594 788.5 64.788 L 788.5 256.212 C 788.5 259.406 785.906 262 782.712 262 L 781.288 262 C 778.094 262 775.5 259.406 775.5 256.212 L 775.5 64.788 C 775.5 61.594 778.094 59 781.288 59 Z" style="stroke:none;fill:#7642E4;stroke-miterlimit:10;"/><path d="M 803.457 48 L 804.543 48 C 807.831 48 810.5 50.669 810.5 53.957 L 810.5 257.043 C 810.5 260.331 807.831 263 804.543 263 L 803.457 263 C 800.169 263 797.5 260.331 797.5 257.043 L 797.5 53.957 C 797.5 50.669 800.169 48 803.457 48 Z" style="stroke:none;fill:#7642E4;stroke-miterlimit:10;"/><path d="M 826.457 47 L 827.543 47 C 830.831 47 833.5 49.669 833.5 52.957 L 833.5 256.043 C 833.5 259.331 830.831 262 827.543 262 L 826.457 262 C 823.169 262 820.5 259.331 820.5 256.043 L 820.5 52.957 C 820.5 49.669 823.169 47 826.457 47 Z" style="stroke:none;fill:#7642E4;stroke-miterlimit:10;"/><path d="M 850.317 56 L 851.683 56 C 854.894 56 857.5 58.606 857.5 61.817 L 857.5 255.183 C 857.5 258.394 854.894 261 851.683 261 L 850.317 261 C 847.106 261 844.5 258.394 844.5 255.183 L 844.5 61.817 C 844.5 58.606 847.106 56 850.317 56 Z" style="stroke:none;fill:#7642E4;stroke-miterlimit:10;"/><path d="M 872.158 65 L 873.842 65 C 876.965 65 879.5 67.535 879.5 70.658 L 879.5 253.342 C 879.5 256.465 876.965 259 873.842 259 L 872.158 259 C 869.035 259 866.5 256.465 866.5 253.342 L 866.5 70.658 C 866.5 67.535 869.035 65 872.158 65 Z" style="stroke:none;fill:#7642E4;stroke-miterlimit:10;"/><path d="M 896.317 55 L 897.683 55 C 900.894 55 903.5 57.606 903.5 60.817 L 903.5 254.183 C 903.5 257.394 900.894 260 897.683 260 L 896.317 260 C 893.106 260 890.5 257.394 890.5 254.183 L 890.5 60.817 C 890.5 57.606 893.106 55 896.317 55 Z" style="stroke:none;fill:#7642E4;stroke-miterlimit:10;"/><path d="M 918.607 34 L 919.393 34 C 922.763 34 925.5 36.737 925.5 40.107 L 925.5 253.893 C 925.5 257.263 922.763 260 919.393 260 L 918.607 260 C 915.237 260 912.5 257.263 912.5 253.893 L 912.5 40.107 C 912.5 36.737 915.237 34 918.607 34 Z" style="stroke:none;fill:#7642E4;stroke-miterlimit:10;"/></g></svg>